<?xml version="1.0" encoding="iso-8859-1"?>
<!-- Generator: Adobe Illustrator 19.0.0, SVG Export Plug-In . SVG Version: 6.00 Build 0)  -->
<svg version="1.1" id="Capa_1" xmlns="http://www.w3.org/2000/svg" xmlns:xlink="http://www.w3.org/1999/xlink" x="0px" y="0px"
	 viewBox="0 0 512 512" style="enable-background:new 0 0 512 512;" xml:space="preserve">
<g>
	<g>
		<path d="M306.712,110.332c-1.982-4.47-4.791-8.27-8.432-11.401c-3.641-3.129-8.081-5.749-13.317-7.856
			c-5.24-2.108-11.114-4.054-17.629-5.845c-4.729-1.275-8.881-2.425-12.456-3.449c-3.578-1.021-6.548-2.138-8.91-3.354
			c-2.365-1.213-4.152-2.587-5.365-4.12c-1.216-1.533-1.82-3.449-1.82-5.748c0-7.536,5.62-11.306,16.862-11.306
			c4.087,0,8.174,0.575,12.264,1.725c4.087,1.15,7.856,2.491,11.306,4.024c3.449,1.533,6.323,3.003,8.623,4.408
			c2.3,1.407,3.641,2.365,4.024,2.874l13.797-26.061c-3.066-1.787-6.42-3.575-10.061-5.365c-3.641-1.788-7.569-3.383-11.785-4.791
			c-4.089-1.362-8.362-2.48-12.813-3.363V0h-30v31.134c-1.231,0.305-2.452,0.636-3.655,1.016c-6.069,1.916-11.401,4.76-16,8.527
			c-4.6,3.77-8.24,8.401-10.923,13.893c-2.683,5.494-4.023,11.818-4.023,18.971c0,5.111,0.733,9.581,2.203,13.413
			c1.467,3.833,3.704,7.219,6.707,10.156c3,2.94,6.803,5.527,11.401,7.761c4.599,2.236,10.027,4.311,16.288,6.228
			c4.725,1.407,9.102,2.683,13.126,3.833c4.023,1.149,7.503,2.395,10.443,3.736c2.936,1.341,5.236,2.845,6.898,4.503
			c1.658,1.662,2.49,3.77,2.49,6.323c0.001,6.772-5.556,10.155-16.67,10.155c-5.239,0-10.413-0.7-15.521-2.107
			c-5.11-1.404-9.742-3-13.892-4.79c-4.153-1.788-7.636-3.575-10.443-5.366c-2.812-1.787-4.474-3-4.982-3.641l-13.797,27.402
			c3.958,2.683,8.27,5.048,12.935,7.09c4.661,2.045,9.485,3.803,14.467,5.27c4.223,1.246,8.542,2.223,12.949,2.963v34.223h30V167.1
			c2.251-0.338,4.479-0.767,6.681-1.294c6.132-1.467,11.56-3.832,16.288-7.09c4.725-3.257,8.527-7.536,11.401-12.838
			c2.874-5.3,4.311-11.785,4.311-19.45C309.682,120.17,308.691,114.805,306.712,110.332z"/>
	</g>
</g>
<g>
	<g>
		<polygon points="470.041,482 470.041,197.381 349.322,197.381 349.322,482 317.382,482 317.382,252.145 196.663,252.145 
			196.663,482 162.678,482 162.678,302.21 41.958,302.21 41.958,482 0,482 0,512 512,512 512,482 		"/>
	</g>
</g>
<g>
</g>
<g>
</g>
<g>
</g>
<g>
</g>
<g>
</g>
<g>
</g>
<g>
</g>
<g>
</g>
<g>
</g>
<g>
</g>
<g>
</g>
<g>
</g>
<g>
</g>
<g>
</g>
<g>
</g>
</svg>
