<?xml version="1.0" encoding="iso-8859-1"?>
<!-- Generator: Adobe Illustrator 19.0.0, SVG Export Plug-In . SVG Version: 6.00 Build 0)  -->
<svg version="1.1" id="Capa_1" xmlns="http://www.w3.org/2000/svg" xmlns:xlink="http://www.w3.org/1999/xlink" x="0px" y="0px"
	 viewBox="0 0 512 512" style="enable-background:new 0 0 512 512;" xml:space="preserve">
<g>
	<g>
		<path d="M435,260.504h77v-90H30c-10.977,0-21.14-3.177-30-8.344v263.344c0,41.353,33.647,75,75,75h437v-90h-77
			c-41.353,0-75-33.647-75-75C360,294.151,393.647,260.504,435,260.504z M255,320.504c24.814,0,45,20.186,45,45
			c0,19.53-12.578,36.024-30,42.237v32.763h-30v-32.763c-17.422-6.213-30-22.707-30-42.237h30c0,8.276,6.724,15,15,15
			s15-6.724,15-15s-6.724-15-15-15c-24.814,0-45-20.186-45-45c0-19.53,12.578-36.024,30-42.237v-32.763h30v32.763
			c17.422,6.213,30,22.707,30,42.237h-30c0-8.276-6.724-15-15-15s-15,6.724-15,15S246.724,320.504,255,320.504z"/>
	</g>
</g>
<g>
	<g>
		<path d="M435,290.504c-24.814,0-45,20.186-45,45c0,24.814,20.186,45,45,45h77v-90H435z M450,350.504h-30v-30h30V350.504z"/>
	</g>
</g>
<g>
	<g>
		<polygon points="195,11.496 91.804,140.504 298.196,140.504 		"/>
	</g>
</g>
<g>
	<g>
		<polygon points="315,11.496 274.213,62.489 336.628,140.504 418.196,140.504 		"/>
	</g>
</g>
<g>
	<g>
		<polygon points="408.625,80.504 456.628,140.504 480,140.504 480,80.504 		"/>
	</g>
</g>
<g>
	<g>
		<path d="M30,80.504c-16.569,0-30,13.431-30,30c0,16.568,13.431,30,30,30h23.372l48.003-60H30z"/>
	</g>
</g>
<g>
</g>
<g>
</g>
<g>
</g>
<g>
</g>
<g>
</g>
<g>
</g>
<g>
</g>
<g>
</g>
<g>
</g>
<g>
</g>
<g>
</g>
<g>
</g>
<g>
</g>
<g>
</g>
<g>
</g>
</svg>
